<?xml version="1.0" encoding="UTF-8" standalone="no"?>
<!-- Created with Inkscape (http://www.inkscape.org/) -->

<svg
   version="1.1"
   id="svg221"
   width="228.96001"
   height="228.96001"
   viewBox="0 0 228.96001 228.96001"
   sodipodi:docname="body.svg"
   inkscape:version="1.1.2 (0a00cf5339, 2022-02-04)"
   xmlns:inkscape="http://www.inkscape.org/namespaces/inkscape"
   xmlns:sodipodi="http://sodipodi.sourceforge.net/DTD/sodipodi-0.dtd"
   xmlns="http://www.w3.org/2000/svg"
   xmlns:svg="http://www.w3.org/2000/svg">
  <sodipodi:namedview
     id="namedview36"
     pagecolor="#ffffff"
     bordercolor="#666666"
     borderopacity="1.0"
     inkscape:pageshadow="2"
     inkscape:pageopacity="0.0"
     inkscape:pagecheckerboard="0"
     showgrid="false"
     inkscape:zoom="1.2832061"
     inkscape:cx="76.371208"
     inkscape:cy="71.69542"
     inkscape:window-width="1720"
     inkscape:window-height="1358"
     inkscape:window-x="1720"
     inkscape:window-y="0"
     inkscape:window-maximized="0"
     inkscape:current-layer="svg221" />
  <defs
     id="defs225" />
  <path
     style="fill:#010101;stroke-width:0.24"
     d="m 99,190.92103 c -3.78713,-0.6144 -5.0375,-1.36906 -6.70736,-4.04825 -1.22735,-1.9692 -2.33073,-4.78473 -3.03164,-7.73594 -0.58603,-2.46749 -1.17087,-6.54965 -1.1766,-8.21261 -0.006,-1.81657 -0.26113,-2.18849 -1.39546,-2.03635 -2.22243,0.29809 -6.29919,-1.4993 -7.81573,-3.44585 -1.49789,-1.92261 -1.92203,-3.3728 -2.02451,-6.92202 -0.20047,-6.94361 1.56931,-14.98285 4.94,-22.44 2.29932,-5.0869 5.18115,-9.28282 8.46159,-12.32001 1.06248,-0.98369 1.67334,-1.72438 1.59356,-1.93227 -0.0711,-0.18541 -0.86612,-0.5785 -1.7666,-0.87354 -3.58432,-1.17435 -7.05229,-3.12122 -9.95555,-5.58892 l -1.5983,-1.35851 -3.9217,-0.0909 c -4.08459,-0.0946 -4.92598,-0.24818 -10.4017,-1.89818 -2.21271,-0.66676 -6.7124,-2.86893 -9.03537,-4.42195 -1.82925,-1.22295 -4.20304,-3.48186 -5.23482,-4.98152 -1.20389,-1.74978 -1.57114,-2.94234 -1.55648,-5.05425 0.0117,-1.68793 0.10957,-2.10757 0.80963,-3.47185 2.38565,-4.6492 9.27433,-8.56957 18.32731,-10.43013 3.15203,-0.6478 3.13107,-0.61641 2.36475,-3.54214 -0.97092,-3.70687 -1.1086,-5.20722 -0.79,-8.60892 0.45646,-4.87355 1.08919,-7.61949 2.68233,-11.64088 2.84166,-7.17286 9.2715,-14.76056 16.67265,-19.67501 16.37052,-10.8702 38.0351,-12.50767 56.91877,-4.30208 5.18354,2.25242 8.44331,4.12429 12.51549,7.18682 11.61729,8.7369 17.34345,21.65566 15.1768,34.24034 -0.25793,1.49812 -0.68576,3.37185 -0.95074,4.16385 -0.48178,1.44 -0.48178,1.44 0.0408,1.84016 0.28743,0.22009 1.28226,0.58447 2.21073,0.80974 7.87483,1.9106 14.03608,5.69209 16.22518,9.95825 0.70005,1.36428 0.79791,1.78392 0.80963,3.47185 0.0202,2.90333 -0.88009,4.71976 -3.72973,7.52555 -3.6043,3.54883 -8.87571,6.1705 -16.29695,8.10508 -1.69568,0.44203 -3.41788,0.66006 -6.72,0.85072 l -4.44,0.25637 -1.32,1.27802 c -2.18497,2.11548 -2.97118,2.62053 -8.02122,5.15272 -1.30967,0.65669 -2.4276,1.24037 -2.48429,1.29705 -0.0567,0.0567 0.52887,0.42244 1.30123,0.81278 1.47126,0.74357 3.25362,2.45846 5.15691,4.96172 5.98826,7.8759 10.04914,20.65942 9.75867,30.72 -0.10247,3.54922 -0.52661,4.99941 -2.0245,6.92202 -1.51654,1.94655 -5.5933,3.74394 -7.81573,3.44585 -1.13433,-0.15214 -1.3892,0.21978 -1.39546,2.03635 -0.006,1.66296 -0.59058,5.74512 -1.17661,8.21261 -1.04267,4.39023 -3.17823,8.77643 -4.91983,10.10482 -2.08106,1.5873 -6.6008,2.26865 -12.35428,1.86239 -3.49457,-0.24675 -3.77336,-0.30443 -5.4307,-1.12352 -0.96085,-0.47489 -2.08163,-1.24453 -2.4906,-1.71033 l -0.74358,-0.84689 v -4.15311 c 0,-2.2842 -0.16232,-5.87144 -0.36071,-7.97165 -0.41287,-4.37091 -0.46058,-4.46002 -2.56208,-4.78529 -2.63324,-0.40758 -6.09346,-0.11703 -6.93373,0.58222 -0.38756,0.32251 -0.52026,1.00038 -0.82278,4.20307 -0.19839,2.10021 -0.3607,5.68745 -0.3607,7.97165 v 4.15311 l -0.74359,0.84689 c -0.40897,0.4658 -1.51705,1.22917 -2.4624,1.69639 -1.5087,0.74563 -2.05594,0.87736 -4.47642,1.07754 -3.5995,0.2977 -6.15114,0.26082 -8.5176,-0.1231 z"
     id="path6932" />
</svg>
