<?xml version="1.0" encoding="UTF-8" standalone="no"?>
<!-- Created with Inkscape (http://www.inkscape.org/) -->

<svg
   version="1.1"
   id="svg55"
   width="228.96001"
   height="228.96001"
   viewBox="0 0 228.96001 228.96001"
   sodipodi:docname="female_short_hair.svg"
   inkscape:version="1.1.2 (0a00cf5339, 2022-02-04)"
   xmlns:inkscape="http://www.inkscape.org/namespaces/inkscape"
   xmlns:sodipodi="http://sodipodi.sourceforge.net/DTD/sodipodi-0.dtd"
   xmlns="http://www.w3.org/2000/svg"
   xmlns:svg="http://www.w3.org/2000/svg">
  <sodipodi:namedview
     id="namedview16"
     pagecolor="#ffffff"
     bordercolor="#666666"
     borderopacity="1.0"
     inkscape:pageshadow="2"
     inkscape:pageopacity="0.0"
     inkscape:pagecheckerboard="0"
     showgrid="false"
     inkscape:zoom="1.8147274"
     inkscape:cx="53.451554"
     inkscape:cy="93.677982"
     inkscape:window-width="3440"
     inkscape:window-height="1358"
     inkscape:window-x="0"
     inkscape:window-y="0"
     inkscape:window-maximized="1"
     inkscape:current-layer="svg55" />
  <defs
     id="defs59" />
  <path
     style="fill:#e07014;stroke-width:0.24"
     d="m 74.280003,129.19838 c -0.924,-0.4719 -1.715585,-0.95134 -1.759075,-1.06542 -0.04349,-0.11407 -1.069493,-0.79244 -2.28,-1.50747 -4.125065,-2.43664 -8.116793,-5.53935 -12.229083,-9.50548 -3.477118,-3.35354 -4.485168,-5.72544 -4.490031,-10.56483 -0.0025,-2.52664 0.68983,-4.78177 2.644841,-8.614608 1.526398,-2.992533 1.89042,-3.503606 4.428231,-6.217049 1.520815,-1.626065 2.765117,-3.067392 2.765117,-3.202951 0,-0.135559 0.203354,-0.533143 0.451901,-0.883519 0.582501,-0.82116 1.46525,-2.398308 1.725523,-3.082882 0.182834,-0.480888 0.149669,-0.514584 -0.326976,-0.332184 -0.291747,0.111645 -1.178448,0.391265 -1.970448,0.621377 -0.792,0.230114 -1.601184,0.480096 -1.798188,0.555521 -0.197004,0.07542 -0.0228,-0.289472 0.387115,-0.810874 0.920611,-1.170991 1.220674,-1.761175 2.434334,-4.788008 1.333731,-3.326289 1.976739,-5.510215 1.976739,-6.713841 0,-0.861339 0.18144,-2.133178 0.822595,-5.766159 0.04659,-0.264 0.369862,-1.29 0.718375,-2.28 0.348516,-0.99 0.796318,-2.443287 0.995115,-3.229527 0.346493,-1.370371 0.808241,-2.549011 2.284606,-5.831594 1.639195,-3.644624 5.274677,-8.493958 9.130344,-12.17888 2.768957,-2.646334 3.492408,-3.219471 6.928966,-5.489288 5.510935,-3.639924 9.909646,-5.53709 16.799996,-7.245847 5.94868,-1.47523 7.54203,-1.756959 11.52001,-2.036914 9.42399,-0.663223 16.68891,0.239506 26.16,3.250604 1.386,0.440644 2.898,0.874164 3.36,0.963379 1.26515,0.244308 5.36396,2.256144 7.8,3.828509 4.37771,2.825642 10.63211,8.523161 13.38758,12.195579 1.58576,2.113447 3.46058,5.089927 4.4878,7.12483 0.84788,1.679647 1.6375,4.880803 2.41314,9.783007 0.28228,1.784072 0.7301,3.743799 0.99516,4.354954 0.52211,1.203876 1.05693,2.709463 2.73917,7.711188 0.59934,1.782 1.56153,4.239001 2.13821,5.460001 0.57667,1.221 1.01831,2.22 0.98141,2.22 -0.0369,0 -1.24504,-0.376013 -2.68478,-0.835584 -1.43973,-0.459572 -2.76005,-0.837572 -2.93403,-0.84 -0.41513,-0.0058 0.37884,1.144135 1.98545,2.875584 2.46498,2.656507 5.89635,7.185041 7.0422,9.293897 2.55624,4.704589 3.00636,6.218209 3.44902,11.597909 0.37482,4.55535 0.17237,5.88347 -1.36625,8.96277 -1.25106,2.50383 -5.51798,7.99376 -7.91724,10.18655 -1.92679,1.76098 -2.66236,2.03955 -5.39684,2.04386 -1.98115,0.003 -2.50845,-0.0898 -4.02289,-0.70862 -0.95858,-0.39172 -2.63258,-1.36867 -3.72,-2.17101 -1.08741,-0.80234 -2.56553,-1.75645 -3.28471,-2.12024 -0.71918,-0.36379 -1.85811,-1.07708 -2.53094,-1.58507 -1.57035,-1.18562 -3.11593,-1.86286 -5.07775,-2.22494 l -1.56598,-0.28902 1.92952,-1.26979 c 1.06983,-0.70405 2.49608,-1.92442 3.20113,-2.73905 0.69939,-0.80809 1.71753,-1.96155 2.26254,-2.56325 0.97722,-1.07887 2.79727,-4.57045 3.54211,-6.79517 0.51585,-1.54077 0.86098,-4.77405 0.72581,-6.799727 -0.16125,-2.416745 -1.21056,-7.445989 -2.28416,-10.947819 -0.51408,-1.676796 -0.93468,-3.160126 -0.93468,-3.296285 0,-0.136162 -0.71114,-1.842238 -1.5803,-3.79128 -1.65899,-3.720192 -3.44075,-8.80868 -3.93274,-11.231468 -0.90892,-4.475851 -2.03855,-9.266302 -2.43172,-10.312248 -0.24809,-0.66 -0.88367,-1.848 -1.4124,-2.64 -0.52872,-0.792001 -0.96166,-1.683001 -0.96208,-1.980001 -4.8e-4,-0.297 -0.10351,-0.54 -0.22908,-0.54 -0.20947,0 -0.1257,3.49622 0.11174,4.663229 0.0518,0.254777 -0.0249,1.633786 -0.17059,3.064465 -0.2546,2.500696 -0.28895,2.608017 -0.88884,2.776771 -1.56672,0.440733 -8.67714,0.179381 -24.86399,-0.913906 -3.828,-0.258549 -7.716,-0.471849 -8.64,-0.474 -0.92401,-0.0022 -1.79978,-0.08325 -1.94618,-0.180233 -0.25442,-0.168537 -0.35777,-0.437236 -1.13832,-2.959742 -0.18779,-0.606879 -0.53739,-2.747542 -0.77687,-4.757031 -0.31543,-2.646641 -0.49154,-3.501957 -0.63899,-3.103358 -0.11196,0.30264 -0.28497,0.607303 -0.38448,0.67703 -0.0995,0.06973 -0.30188,0.612775 -0.44972,1.206775 -0.14784,0.594 -0.66102,2.322001 -1.1404,3.840001 -0.47937,1.518 -0.90662,3.132396 -0.94944,3.587544 -0.0493,0.523687 -0.30401,1.02209 -0.69381,1.35738 -0.78426,0.674599 -2.7986,0.857815 -9.921009,0.902381 l -5.225165,0.03269 -0.43892,-1.8 c -0.325348,-1.334252 -0.415178,-2.436692 -0.347164,-4.260646 0.05046,-1.353355 0.0675,-2.433355 0.03786,-2.4 -0.02964,0.03336 -0.487063,1.086646 -1.016493,2.340646 -1.82466,4.321848 -3.165675,8.381998 -4.105736,12.430815 -0.929008,4.001222 -1.293319,5.154357 -3.503426,11.089186 -0.614453,1.65 -1.278173,3.54 -1.47493,4.2 -0.196757,0.66 -0.457985,1.416 -0.580507,1.68 -0.547968,1.180718 -1.449106,5.30599 -1.78218,8.158529 -0.53178,4.554332 -0.474159,6.977082 0.236923,9.961472 0.59496,2.49705 1.71408,5.56591 2.085907,5.72 0.106172,0.044 0.19304,0.23677 0.19304,0.42837 0,0.57255 2.918088,3.91743 5.194046,5.95371 3.152525,2.82055 2.946881,2.60353 2.201947,2.3238 -0.354204,-0.13301 -0.678204,-0.16624 -0.72,-0.0738 -0.0418,0.0924 -1.263993,0.9663 -2.715993,1.94204 -4.317411,2.90126 -6.06691,4.30079 -6.870197,5.49586 -0.862035,1.28247 -1.603527,1.96239 -2.129804,1.95293 -0.198,-0.004 -1.116,-0.39257 -2.04,-0.86448 z"
     id="path207" />
</svg>
