<?xml version="1.0" encoding="UTF-8" standalone="no"?>
<!-- Created with Inkscape (http://www.inkscape.org/) -->

<svg
   version="1.1"
   id="svg221"
   width="228.96001"
   height="228.96001"
   viewBox="0 0 228.96001 228.96001"
   sodipodi:docname="female_default_long_hair.svg"
   inkscape:version="1.1.2 (0a00cf5339, 2022-02-04)"
   xmlns:inkscape="http://www.inkscape.org/namespaces/inkscape"
   xmlns:sodipodi="http://sodipodi.sourceforge.net/DTD/sodipodi-0.dtd"
   xmlns="http://www.w3.org/2000/svg"
   xmlns:svg="http://www.w3.org/2000/svg">
  <sodipodi:namedview
     id="namedview35"
     pagecolor="#ffffff"
     bordercolor="#666666"
     borderopacity="1.0"
     inkscape:pageshadow="2"
     inkscape:pageopacity="0.0"
     inkscape:pagecheckerboard="0"
     showgrid="false"
     inkscape:zoom="1.2832061"
     inkscape:cx="109.88102"
     inkscape:cy="144.17014"
     inkscape:window-width="3440"
     inkscape:window-height="1358"
     inkscape:window-x="0"
     inkscape:window-y="0"
     inkscape:window-maximized="1"
     inkscape:current-layer="svg221" />
  <defs
     id="defs225" />
  <path
     style="fill:#df7014;stroke-width:0.24"
     d="m 70.320027,184.08998 c -0.462,-0.10115 -1.11331,-0.29508 -1.447351,-0.43098 -0.570936,-0.23226 -2.766624,-2.54783 -4.52312,-4.77005 -0.430843,-0.54509 -1.342742,-1.29124 -2.026442,-1.65813 -3.548688,-1.90429 -6.779657,-4.81318 -8.92002,-8.03081 -1.04018,-1.56372 -2.657199,-5.14567 -3.033644,-6.72 -1.184647,-4.95432 -1.290938,-10.29972 -0.317354,-15.96 0.337711,-1.96341 1.721781,-6.98751 2.512437,-9.12 2.571457,-6.93555 5.203748,-12.1103 9.744467,-19.15638 2.249738,-3.49104 2.939882,-5.28173 3.67048,-9.52363 0.544349,-3.16052 1.17373,-6.21008 1.335776,-6.47228 0.300614,-0.4864 0.478661,-4.82312 0.424015,-10.32772 -0.06026,-6.06963 -0.151394,-7.06869 -0.919534,-10.08 -0.303206,-1.18864 -0.400226,-2.70263 -0.407558,-6.36 -0.0088,-4.40804 0.04358,-5.02361 0.641964,-7.53846 0.358373,-1.50616 0.813665,-3.12616 1.011763,-3.6 0.198096,-0.47385 0.622337,-1.79366 0.942756,-2.93291 1.294971,-4.60431 4.365797,-9.98554 8.23628,-14.43302 5.958876,-6.8472 14.710503,-12.46968 23.075078,-14.82457 0.99,-0.27871 2.07,-0.6063 2.4,-0.72797 1.38331,-0.51001 8.27423,-1.88211 10.93093,-2.17654 1.57799,-0.17488 5.24508,-0.31636 8.14908,-0.31439 4.42493,0.003 5.75646,0.0907 8.22214,0.54177 3.38589,0.61937 8.18031,1.80045 11.81786,2.91125 1.386,0.42325 3.06,0.93426 3.72,1.13559 7.03956,2.14734 18.07143,11.41964 22.93781,19.27925 2.73879,4.42339 3.08332,5.35916 4.15298,11.28 0.82585,4.57129 0.826,4.57293 1.03797,11.19013 0.19989,6.23991 0.20581,7.24107 0.0857,14.48987 -0.0404,2.442 0.0461,5.304 0.19243,6.36 0.14628,1.056 0.53597,3.918 0.86599,6.36 0.33001,2.442 0.6488,4.656 0.70843,4.92 0.90393,4.00191 1.46302,6.06759 1.72428,6.37069 0.17573,0.20387 0.87151,1.54982 1.54617,2.99099 0.73824,1.57698 1.92796,3.55373 2.98796,4.96461 1.81688,2.4183 5.44042,9.26195 7.79775,14.72736 2.14667,4.97696 3.88186,11.69037 4.2784,16.55298 0.36086,4.42519 -0.12762,9.9982 -1.1491,13.10977 -0.26774,0.81558 -0.4868,1.57867 -0.4868,1.69574 0,0.11707 -0.43558,1.08575 -0.96795,2.15263 -4.01887,8.05388 -10.23134,12.14734 -19.43205,12.80399 -1.254,0.0895 -3.06171,0.30769 -4.01713,0.48487 -1.2285,0.22783 -2.13125,0.258 -3.08322,0.10307 -2.0647,-0.33604 -2.22802,-0.42793 -2.49005,-1.40103 -0.5749,-2.13503 -2.2354,-5.70506 -3.34669,-7.1953 -0.65637,-0.8802 -2.06404,-2.46183 -3.12816,-3.51473 -1.06411,-1.05291 -1.93475,-2.03739 -1.93475,-2.18775 0,-0.16511 0.64162,-0.32312 1.62,-0.39896 1.80259,-0.13973 2.88893,-0.56855 5.02119,-1.98205 4.21288,-2.79278 5.02632,-9.97528 2.22845,-19.67687 -0.53295,-1.848 -1.32921,-4.602 -1.76947,-6.12 -2.05491,-7.08532 -4.97087,-12.30957 -9.0552,-16.22337 -1.5275,-1.46372 -2.73377,-2.25663 -3.43306,-2.25663 -0.20455,0 -0.37191,-0.108 -0.37191,-0.24 0,-0.132 0.108,-0.24 0.24,-0.24 0.132,0 0.2432,-0.135 0.2471,-0.3 0.004,-0.165 1.20651,-1.00019 2.67245,-1.85597 3.21687,-1.87794 4.39321,-2.75305 6.45313,-4.80071 3.11508,-3.09653 5.07705,-6.3323 5.48694,-9.0493 0.50938,-3.37651 0.18147,-8.74128 -0.83572,-13.67269 -0.55541,-2.69263 -2.07081,-7.09231 -3.70657,-10.76134 -1.99665,-4.4785 -3.41717,-8.76352 -4.19253,-12.64687 -0.78137,-3.91347 -1.71634,-7.67549 -2.19157,-8.81819 -0.33138,-0.79681 -2.70128,-4.57494 -2.86971,-4.57494 -0.0418,0 -0.0272,0.243 0.0324,0.54 0.0596,0.297 0.23187,1.782 0.38277,3.3 0.24426,2.45705 0.22427,3.01027 -0.18217,5.04 l -0.45656,2.28 -3.36,0.0157 c -1.848,0.009 -5.08451,-0.0688 -7.19223,-0.17213 -4.40438,-0.21588 -4.92471,-0.4185 -5.20674,-2.02757 -0.0902,-0.5148 -0.56582,-2.232 -1.05687,-3.816 -0.49105,-1.584 -1.01132,-3.312 -1.15616,-3.84 -0.14483,-0.528 -0.39939,-1.10271 -0.56567,-1.27714 -0.16628,-0.17442 -0.30233,-0.48942 -0.30233,-0.7 0,-1.07017 -0.23339,0.15461 -0.58375,3.06347 -0.40117,3.3307 -1.06096,6.47084 -1.55264,7.38955 -0.35502,0.66336 -0.60263,0.70639 -5.06361,0.8801 -2.046,0.0797 -4.206,0.1926 -4.8,0.25096 -0.594,0.0584 -3.94201,0.26907 -7.44001,0.46826 -3.498,0.19918 -8.03902,0.48661 -10.09115,0.63873 -3.884121,0.28793 -8.259048,0.19187 -8.640636,-0.18972 -0.411705,-0.4117 -0.737671,-2.83232 -0.733843,-5.4495 0.0044,-2.99376 0.157174,-4.36986 0.663034,-5.97148 0.197472,-0.62523 0.323841,-1.31733 0.280821,-1.53801 -0.16056,-0.82361 -4.929576,11.4644 -5.648762,14.55479 -1.199031,5.15232 -1.854528,7.58696 -2.494911,9.26658 -0.397044,1.04138 -1.097844,2.95371 -1.557331,4.24962 -0.45949,1.29591 -1.430822,3.85879 -2.158522,5.69528 -1.747673,4.41062 -2.275524,7.14565 -2.313739,11.98851 -0.03336,4.22727 0.246828,5.77431 1.57273,8.68381 2.343348,5.14214 6.676327,9.49146 11.682317,11.72636 0.99,0.44199 1.842391,0.8339 1.8942,0.87092 0.207629,0.14837 -0.570305,0.83143 -1.387262,1.21808 -1.322036,0.62569 -4.67234,4.19017 -6.473979,6.88783 -3.037155,4.54765 -5.37349,9.97128 -6.880683,15.97301 -1.152465,4.58918 -1.631618,8.17091 -1.653485,12.36 -0.01788,3.42645 0.01303,3.67199 0.641434,5.0933 0.670054,1.51553 2.054234,3.6667 2.359361,3.6667 0.09195,0 0.887599,0.42098 1.768106,0.93552 1.729505,1.01067 4.152577,1.62116 5.371678,1.3534 0.569554,-0.12509 0.746458,-0.0676 0.850764,0.27657 0.235032,0.77549 0.236614,3.47205 0.0022,3.63553 -0.125409,0.0874 -1.034474,0.68293 -2.020142,1.32332 -0.985671,0.64039 -2.084753,1.36939 -2.442408,1.62 -0.357656,0.25061 -0.753656,0.45566 -0.879999,0.45566 -0.126345,0 -0.265718,0.081 -0.30972,0.18 -0.044,0.099 -0.727999,0.612 -1.519999,1.13999 -0.792,0.528 -1.548,1.04548 -1.68,1.14996 -0.132,0.10448 -1.104,0.81659 -2.16,1.58246 -1.056,0.76587 -2.521551,1.94244 -3.256779,2.61462 -1.444857,1.32094 -2.044149,1.54733 -3.343222,1.26294 z"
     id="path859-0" />
</svg>
